<svg width="414" height="147" viewBox="0 0 414 147" fill="none" xmlns="http://www.w3.org/2000/svg">
<path d="M38.7589 48.7025C42.3521 46.6368 46.7792 46.6368 50.3724 48.7025L83.3245 67.6471C86.9178 69.7129 89.1313 73.5306 89.1313 77.6622V115.551C89.1313 119.683 86.9178 123.501 83.3245 125.566L50.3724 144.511C46.7792 146.577 42.3521 146.577 38.7589 144.511L5.80677 125.566C2.21353 123.501 0 119.683 0 115.551V77.6622C0 73.5306 2.21353 69.7129 5.80677 67.6471L38.7589 48.7025Z" fill="white"/>
<path d="M109.738 97.7568C108.754 97.7568 107.949 97.4424 107.322 96.8137C106.696 96.185 106.383 95.3766 106.383 94.3886V6.81817C106.383 5.8302 106.696 5.02185 107.322 4.39314C108.038 3.76443 108.843 3.45007 109.738 3.45007H127.054C128.038 3.45007 128.843 3.76443 129.47 4.39314C130.186 5.02185 130.544 5.8302 130.544 6.81817V39.2866H163.564V6.81817C163.564 5.8302 163.877 5.02185 164.503 4.39314C165.13 3.76443 165.935 3.45007 166.919 3.45007H184.235C185.219 3.45007 186.024 3.76443 186.651 4.39314C187.277 5.02185 187.59 5.8302 187.59 6.81817V94.3886C187.59 95.3766 187.277 96.185 186.651 96.8137C186.024 97.4424 185.219 97.7568 184.235 97.7568H166.919C165.935 97.7568 165.13 97.4424 164.503 96.8137C163.877 96.185 163.564 95.3766 163.564 94.3886V60.8424H130.544V94.3886C130.544 95.3766 130.186 96.185 129.47 96.8137C128.843 97.4424 128.038 97.7568 127.054 97.7568H109.738Z" fill="white"/>
<path d="M209.754 97.7568C208.859 97.7568 208.053 97.4424 207.337 96.8137C206.711 96.0952 206.398 95.2868 206.398 94.3886V6.81817C206.398 5.8302 206.711 5.02185 207.337 4.39314C208.053 3.76443 208.859 3.45007 209.754 3.45007H227.74C228.724 3.45007 229.53 3.76443 230.156 4.39314C230.872 5.02185 231.23 5.8302 231.23 6.81817V94.3886C231.23 95.3766 230.872 96.185 230.156 96.8137C229.53 97.4424 228.724 97.7568 227.74 97.7568H209.754Z" fill="white"/>
<path d="M276.762 97.7568C273.899 97.7568 272.064 96.4095 271.259 93.715L243.877 7.49179L243.608 6.27928C243.608 5.56075 243.877 4.93204 244.414 4.39314C245.04 3.76443 245.756 3.45007 246.561 3.45007H263.205C264.458 3.45007 265.487 3.80934 266.293 4.52787C267.188 5.24639 267.769 6.05474 268.038 6.9529L287.098 69.1953L306.024 6.9529C306.293 6.05474 306.829 5.24639 307.635 4.52787C308.53 3.80934 309.603 3.45007 310.856 3.45007H327.635C328.351 3.45007 328.977 3.76443 329.514 4.39314C330.14 4.93204 330.453 5.56075 330.453 6.27928L330.185 7.49179L302.803 93.715C301.997 96.4095 300.163 97.7568 297.299 97.7568H276.762Z" fill="white"/>
<path d="M346.341 97.7568C345.446 97.7568 344.64 97.4424 343.924 96.8137C343.298 96.0952 342.985 95.2868 342.985 94.3886V6.81817C342.985 5.8302 343.298 5.02185 343.924 4.39314C344.64 3.76443 345.446 3.45007 346.341 3.45007H409.025C410.009 3.45007 410.815 3.76443 411.441 4.39314C412.067 5.02185 412.381 5.8302 412.381 6.81817V19.4822C412.381 20.3804 412.067 21.1887 411.441 21.9072C410.815 22.5359 410.009 22.8503 409.025 22.8503H366.206V41.038H406.072C407.056 41.038 407.862 41.3973 408.488 42.1158C409.114 42.7445 409.428 43.5529 409.428 44.5408V56.2618C409.428 57.16 409.114 57.9683 408.488 58.6868C407.862 59.3156 407.056 59.6299 406.072 59.6299H366.206V78.3565H410.099C411.083 78.3565 411.888 78.6709 412.515 79.2996C413.141 79.9283 413.454 80.7366 413.454 81.7246V94.3886C413.454 95.2868 413.141 96.0952 412.515 96.8137C411.888 97.4424 411.083 97.7568 410.099 97.7568H346.341Z" fill="white"/>
<path d="M10.4273 35.0773C10.1224 35.0773 9.84803 34.9719 9.60412 34.761C9.39071 34.5201 9.284 34.249 9.284 33.9478V10.5436H1.14374C0.838859 10.5436 0.564468 10.4382 0.320565 10.2273C0.10715 9.98637 0.000442505 9.71528 0.000442505 9.41407V4.57962C0.000442505 4.24828 0.10715 3.97719 0.320565 3.76635C0.564468 3.5555 0.838859 3.45007 1.14374 3.45007H25.7475C26.0828 3.45007 26.3572 3.5555 26.5706 3.76635C26.784 3.97719 26.8908 4.24828 26.8908 4.57962V9.41407C26.8908 9.7454 26.784 10.0165 26.5706 10.2273C26.3572 10.4382 26.0828 10.5436 25.7475 10.5436H17.6072V33.9478C17.6072 34.249 17.5005 34.5201 17.2871 34.761C17.0737 34.9719 16.7993 35.0773 16.4639 35.0773H10.4273Z" fill="white"/>
<path d="M32.1903 35.0773C31.8549 35.0773 31.5805 34.9719 31.3671 34.761C31.1537 34.5502 31.047 34.2791 31.047 33.9478V4.57962C31.047 4.24828 31.1537 3.97719 31.3671 3.76635C31.611 3.5555 31.8854 3.45007 32.1903 3.45007H38.0897C38.4251 3.45007 38.6994 3.5555 38.9129 3.76635C39.1568 3.97719 39.2787 4.24828 39.2787 4.57962V15.4684H50.5287V4.57962C50.5287 4.24828 50.6354 3.97719 50.8489 3.76635C51.0623 3.5555 51.3367 3.45007 51.672 3.45007H57.5714C57.9068 3.45007 58.1812 3.5555 58.3946 3.76635C58.608 3.97719 58.7147 4.24828 58.7147 4.57962V33.9478C58.7147 34.2791 58.608 34.5502 58.3946 34.761C58.1812 34.9719 57.9068 35.0773 57.5714 35.0773H51.672C51.3367 35.0773 51.0623 34.9719 50.8489 34.761C50.6354 34.5502 50.5287 34.2791 50.5287 33.9478V22.6975H39.2787V33.9478C39.2787 34.2791 39.1568 34.5502 38.9129 34.761C38.6994 34.9719 38.4251 35.0773 38.0897 35.0773H32.1903Z" fill="white"/>
<path d="M66.2658 35.0773C65.961 35.0773 65.6866 34.9719 65.4427 34.761C65.2293 34.5201 65.1225 34.249 65.1225 33.9478V4.57962C65.1225 4.24828 65.2293 3.97719 65.4427 3.76635C65.6866 3.5555 65.961 3.45007 66.2658 3.45007H87.6226C87.958 3.45007 88.2324 3.5555 88.4458 3.76635C88.6592 3.97719 88.7659 4.24828 88.7659 4.57962V8.8267C88.7659 9.12792 88.6592 9.39901 88.4458 9.63998C88.2324 9.85082 87.958 9.95625 87.6226 9.95625H73.0341V16.0558H86.6165C86.9519 16.0558 87.2263 16.1763 87.4397 16.4172C87.6531 16.6281 87.7598 16.8992 87.7598 17.2305V21.1613C87.7598 21.4625 87.6531 21.7336 87.4397 21.9746C87.2263 22.1854 86.9519 22.2909 86.6165 22.2909H73.0341V28.5711H87.9885C88.3238 28.5711 88.5982 28.6766 88.8116 28.8874C89.025 29.0983 89.1318 29.3693 89.1318 29.7007V33.9478C89.1318 34.249 89.025 34.5201 88.8116 34.761C88.5982 34.9719 88.3238 35.0773 87.9885 35.0773H66.2658Z" fill="white"/>
<path d="M107.02 138C106.839 138 106.669 137.932 106.51 137.796C106.374 137.637 106.306 137.467 106.306 137.286C106.306 137.173 106.317 137.071 106.34 136.98L114.33 115.152C114.398 114.903 114.534 114.687 114.738 114.506C114.965 114.302 115.271 114.2 115.656 114.2H120.688C121.073 114.2 121.368 114.302 121.572 114.506C121.799 114.687 121.946 114.903 122.014 115.152L129.97 136.98C130.015 137.071 130.038 137.173 130.038 137.286C130.038 137.467 129.959 137.637 129.8 137.796C129.664 137.932 129.494 138 129.29 138H125.108C124.768 138 124.507 137.921 124.326 137.762C124.167 137.581 124.065 137.422 124.02 137.286L122.694 133.818H113.616L112.324 137.286C112.279 137.422 112.177 137.581 112.018 137.762C111.859 137.921 111.587 138 111.202 138H107.02ZM115.01 128.922H121.334L118.138 119.946L115.01 128.922ZM133.568 138C133.319 138 133.115 137.921 132.956 137.762C132.797 137.603 132.718 137.399 132.718 137.15V115.05C132.718 114.801 132.797 114.597 132.956 114.438C133.115 114.279 133.319 114.2 133.568 114.2H138.056C138.283 114.2 138.475 114.279 138.634 114.438C138.815 114.597 138.906 114.801 138.906 115.05V132.866H149.174C149.423 132.866 149.627 132.957 149.786 133.138C149.967 133.297 150.058 133.501 150.058 133.75V137.15C150.058 137.399 149.967 137.603 149.786 137.762C149.627 137.921 149.423 138 149.174 138H133.568ZM162.535 138.34C160.495 138.34 158.705 138.011 157.163 137.354C155.645 136.674 154.466 135.643 153.627 134.26C152.789 132.855 152.369 131.075 152.369 128.922V115.05C152.369 114.801 152.449 114.597 152.607 114.438C152.766 114.279 152.97 114.2 153.219 114.2H157.605C157.855 114.2 158.059 114.279 158.217 114.438C158.376 114.597 158.455 114.801 158.455 115.05V128.888C158.455 130.361 158.807 131.472 159.509 132.22C160.235 132.945 161.243 133.308 162.535 133.308C163.805 133.308 164.791 132.945 165.493 132.22C166.219 131.472 166.581 130.361 166.581 128.888V115.05C166.581 114.801 166.661 114.597 166.819 114.438C167.001 114.279 167.205 114.2 167.431 114.2H171.851C172.078 114.2 172.271 114.279 172.429 114.438C172.611 114.597 172.701 114.801 172.701 115.05V128.922C172.701 131.075 172.282 132.855 171.443 134.26C170.605 135.643 169.426 136.674 167.907 137.354C166.389 138.011 164.598 138.34 162.535 138.34ZM178.06 138C177.833 138 177.629 137.921 177.448 137.762C177.289 137.603 177.21 137.399 177.21 137.15V115.05C177.21 114.801 177.289 114.597 177.448 114.438C177.629 114.279 177.833 114.2 178.06 114.2H181.732C182.095 114.2 182.367 114.302 182.548 114.506C182.752 114.687 182.877 114.835 182.922 114.948L188.906 125.692L194.89 114.948C194.958 114.835 195.071 114.687 195.23 114.506C195.411 114.302 195.695 114.2 196.08 114.2H199.718C199.967 114.2 200.171 114.279 200.33 114.438C200.511 114.597 200.602 114.801 200.602 115.05V137.15C200.602 137.399 200.511 137.603 200.33 137.762C200.171 137.921 199.967 138 199.718 138H195.672C195.423 138 195.207 137.921 195.026 137.762C194.867 137.603 194.788 137.399 194.788 137.15V124.4L190.946 131.506C190.855 131.71 190.719 131.891 190.538 132.05C190.357 132.209 190.107 132.288 189.79 132.288H188.022C187.705 132.288 187.455 132.209 187.274 132.05C187.093 131.891 186.945 131.71 186.832 131.506L182.99 124.4V137.15C182.99 137.399 182.911 137.603 182.752 137.762C182.593 137.921 182.389 138 182.14 138H178.06ZM206.183 138C205.934 138 205.73 137.921 205.571 137.762C205.412 137.603 205.333 137.399 205.333 137.15V115.05C205.333 114.801 205.412 114.597 205.571 114.438C205.73 114.279 205.934 114.2 206.183 114.2H209.787C210.172 114.2 210.444 114.291 210.603 114.472C210.784 114.631 210.898 114.755 210.943 114.846L219.239 127.936V115.05C219.239 114.801 219.318 114.597 219.477 114.438C219.636 114.279 219.84 114.2 220.089 114.2H224.169C224.418 114.2 224.622 114.279 224.781 114.438C224.94 114.597 225.019 114.801 225.019 115.05V137.15C225.019 137.377 224.94 137.581 224.781 137.762C224.622 137.921 224.418 138 224.169 138H220.531C220.168 138 219.896 137.909 219.715 137.728C219.556 137.547 219.454 137.422 219.409 137.354L211.113 124.774V137.15C211.113 137.399 211.034 137.603 210.875 137.762C210.716 137.921 210.512 138 210.263 138H206.183ZM230.621 138C230.371 138 230.167 137.921 230.009 137.762C229.85 137.603 229.771 137.399 229.771 137.15V115.05C229.771 114.801 229.85 114.597 230.009 114.438C230.167 114.279 230.371 114.2 230.621 114.2H235.177C235.426 114.2 235.63 114.279 235.789 114.438C235.947 114.597 236.027 114.801 236.027 115.05V137.15C236.027 137.399 235.947 137.603 235.789 137.762C235.63 137.921 235.426 138 235.177 138H230.621ZM248.882 138C248.633 138 248.429 137.921 248.27 137.762C248.112 137.603 248.032 137.399 248.032 137.15V115.05C248.032 114.801 248.112 114.597 248.27 114.438C248.429 114.279 248.633 114.2 248.882 114.2H252.486C252.872 114.2 253.144 114.291 253.302 114.472C253.484 114.631 253.597 114.755 253.642 114.846L261.938 127.936V115.05C261.938 114.801 262.018 114.597 262.176 114.438C262.335 114.279 262.539 114.2 262.788 114.2H266.868C267.118 114.2 267.322 114.279 267.48 114.438C267.639 114.597 267.718 114.801 267.718 115.05V137.15C267.718 137.377 267.639 137.581 267.48 137.762C267.322 137.921 267.118 138 266.868 138H263.23C262.868 138 262.596 137.909 262.414 137.728C262.256 137.547 262.154 137.422 262.108 137.354L253.812 124.774V137.15C253.812 137.399 253.733 137.603 253.574 137.762C253.416 137.921 253.212 138 252.962 138H248.882ZM273.32 138C273.071 138 272.867 137.921 272.708 137.762C272.549 137.603 272.47 137.399 272.47 137.15V115.05C272.47 114.801 272.549 114.597 272.708 114.438C272.867 114.279 273.071 114.2 273.32 114.2H289.198C289.447 114.2 289.651 114.279 289.81 114.438C289.969 114.597 290.048 114.801 290.048 115.05V118.246C290.048 118.495 289.969 118.699 289.81 118.858C289.651 119.017 289.447 119.096 289.198 119.096H278.352V123.686H288.45C288.699 123.686 288.903 123.777 289.062 123.958C289.221 124.117 289.3 124.321 289.3 124.57V127.528C289.3 127.755 289.221 127.959 289.062 128.14C288.903 128.299 288.699 128.378 288.45 128.378H278.352V133.104H289.47C289.719 133.104 289.923 133.183 290.082 133.342C290.241 133.501 290.32 133.705 290.32 133.954V137.15C290.32 137.399 290.241 137.603 290.082 137.762C289.923 137.921 289.719 138 289.47 138H273.32ZM300.271 138C300.021 138 299.817 137.921 299.659 137.762C299.5 137.603 299.421 137.399 299.421 137.15V119.538H293.369C293.119 119.538 292.915 119.459 292.757 119.3C292.598 119.119 292.519 118.915 292.519 118.688V115.05C292.519 114.801 292.598 114.597 292.757 114.438C292.915 114.279 293.119 114.2 293.369 114.2H311.661C311.91 114.2 312.114 114.279 312.273 114.438C312.431 114.597 312.511 114.801 312.511 115.05V118.688C312.511 118.915 312.431 119.119 312.273 119.3C312.114 119.459 311.91 119.538 311.661 119.538H305.609V137.15C305.609 137.399 305.529 137.603 305.371 137.762C305.212 137.921 305.008 138 304.759 138H300.271ZM319.409 138C319.023 138 318.717 137.887 318.491 137.66C318.264 137.433 318.128 137.173 318.083 136.878L314.377 115.152C314.354 115.107 314.343 115.061 314.343 115.016C314.343 114.971 314.343 114.937 314.343 114.914C314.343 114.733 314.411 114.574 314.547 114.438C314.705 114.279 314.875 114.2 315.057 114.2H319.273C319.907 114.2 320.259 114.449 320.327 114.948L322.537 128.242L324.985 120.388C325.053 120.207 325.166 120.014 325.325 119.81C325.483 119.583 325.744 119.47 326.107 119.47H328.555C328.94 119.47 329.212 119.583 329.371 119.81C329.529 120.014 329.631 120.207 329.677 120.388L332.125 128.208L334.335 114.948C334.403 114.449 334.754 114.2 335.389 114.2H339.605C339.809 114.2 339.979 114.279 340.115 114.438C340.251 114.574 340.319 114.733 340.319 114.914C340.319 114.937 340.319 114.971 340.319 115.016C340.319 115.061 340.319 115.107 340.319 115.152L336.613 136.878C336.567 137.173 336.431 137.433 336.205 137.66C335.978 137.887 335.672 138 335.287 138H332.057C331.671 138 331.377 137.898 331.173 137.694C330.969 137.49 330.833 137.297 330.765 137.116L327.331 127.392L323.897 137.116C323.829 137.297 323.693 137.49 323.489 137.694C323.307 137.898 323.024 138 322.639 138H319.409ZM353.282 138.34C351.196 138.34 349.383 138 347.842 137.32C346.3 136.64 345.099 135.643 344.238 134.26C343.376 132.855 342.9 131.075 342.81 129.092C342.787 128.117 342.776 127.143 342.776 126.168C342.776 125.193 342.787 124.207 342.81 123.21C342.9 121.17 343.376 119.459 344.238 118.076C345.122 116.671 346.334 115.617 347.876 114.914C349.417 114.211 351.219 113.86 353.282 113.86C355.322 113.86 357.112 114.211 358.654 114.914C360.218 115.617 361.442 116.671 362.326 118.076C363.21 119.459 363.686 121.17 363.754 123.21C363.799 124.207 363.822 125.193 363.822 126.168C363.822 127.143 363.799 128.117 363.754 129.092C363.663 131.155 363.187 132.877 362.326 134.26C361.464 135.62 360.263 136.64 358.722 137.32C357.18 138 355.367 138.34 353.282 138.34ZM353.282 133.444C354.483 133.444 355.458 133.081 356.206 132.356C356.976 131.631 357.384 130.475 357.43 128.888C357.475 127.891 357.498 126.95 357.498 126.066C357.498 125.182 357.475 124.264 357.43 123.312C357.384 122.247 357.18 121.385 356.818 120.728C356.478 120.048 356.002 119.549 355.39 119.232C354.778 118.915 354.075 118.756 353.282 118.756C352.511 118.756 351.82 118.915 351.208 119.232C350.596 119.549 350.108 120.048 349.746 120.728C349.383 121.385 349.179 122.247 349.134 123.312C349.111 124.264 349.1 125.182 349.1 126.066C349.1 126.95 349.111 127.891 349.134 128.888C349.202 130.475 349.61 131.631 350.358 132.356C351.106 133.081 352.08 133.444 353.282 133.444ZM368.613 138C368.363 138 368.159 137.921 368.001 137.762C367.842 137.603 367.763 137.399 367.763 137.15V115.05C367.763 114.801 367.842 114.597 368.001 114.438C368.159 114.279 368.363 114.2 368.613 114.2H377.861C380.785 114.2 383.085 114.88 384.763 116.24C386.463 117.577 387.313 119.481 387.313 121.952C387.313 123.561 386.916 124.921 386.123 126.032C385.352 127.143 384.332 127.981 383.063 128.548L387.755 136.912C387.823 137.048 387.857 137.173 387.857 137.286C387.857 137.467 387.777 137.637 387.619 137.796C387.483 137.932 387.313 138 387.109 138H382.621C382.19 138 381.873 137.898 381.669 137.694C381.465 137.467 381.317 137.263 381.227 137.082L377.351 129.602H373.849V137.15C373.849 137.399 373.769 137.603 373.611 137.762C373.452 137.921 373.248 138 372.999 138H368.613ZM373.849 124.808H377.793C378.858 124.808 379.651 124.547 380.173 124.026C380.717 123.505 380.989 122.791 380.989 121.884C380.989 121 380.728 120.286 380.207 119.742C379.708 119.198 378.903 118.926 377.793 118.926H373.849V124.808ZM392.121 138C391.871 138 391.667 137.921 391.509 137.762C391.35 137.603 391.271 137.399 391.271 137.15V115.05C391.271 114.801 391.35 114.597 391.509 114.438C391.667 114.279 391.871 114.2 392.121 114.2H396.405C396.654 114.2 396.858 114.279 397.017 114.438C397.175 114.597 397.255 114.801 397.255 115.05V122.598L403.545 114.846C403.635 114.71 403.783 114.574 403.987 114.438C404.213 114.279 404.508 114.2 404.871 114.2H409.767C409.971 114.2 410.141 114.279 410.277 114.438C410.413 114.574 410.481 114.733 410.481 114.914C410.481 115.073 410.435 115.209 410.345 115.322L402.219 125.59L410.991 136.878C411.081 136.969 411.127 137.105 411.127 137.286C411.127 137.467 411.047 137.637 410.889 137.796C410.753 137.932 410.594 138 410.413 138H405.347C404.939 138 404.621 137.909 404.395 137.728C404.191 137.547 404.055 137.411 403.987 137.32L397.255 128.922V137.15C397.255 137.399 397.175 137.603 397.017 137.762C396.858 137.921 396.654 138 396.405 138H392.121Z" fill="white"/>
</svg>
